<svg version="1.1"
    xmlns="http://www.w3.org/2000/svg" 
    xmlnsXlink="http://www.w3.org/1999/xlink"
>
    <defs>
        <symbol id="comments"  viewBox="0 0 16 16">
          <path d="M13.6673 11.4533L13.2407 11.1925L13.104 11.416L13.2101 11.6557L13.6673 11.4533ZM11.8266 13.4215L12.029 12.9643L11.7694 12.8494L11.5377 13.0134L11.8266 13.4215ZM14.0159 14.3906L13.8135 14.8478L14.0159 14.3906ZM14.6755 13.731L14.2183 13.9334L14.2183 13.9334L14.6755 13.731ZM14.1404 7.98702C14.1404 9.16232 13.8114 10.2592 13.2407 11.1925L14.0939 11.7142C14.7578 10.6284 15.1404 9.3516 15.1404 7.98702H14.1404ZM7.9867 1.83333C11.3853 1.83333 14.1404 4.58843 14.1404 7.98702H15.1404C15.1404 4.03615 11.9376 0.833333 7.9867 0.833333V1.83333ZM1.83301 7.98702C1.83301 4.58843 4.58811 1.83333 7.9867 1.83333V0.833333C4.03582 0.833333 0.833008 4.03615 0.833008 7.98702H1.83301ZM7.9867 14.1407C4.58811 14.1407 1.83301 11.3856 1.83301 7.98702H0.833008C0.833008 11.9379 4.03582 15.1407 7.9867 15.1407V14.1407ZM11.5377 13.0134C10.5346 13.7235 9.3101 14.1407 7.9867 14.1407V15.1407C9.52376 15.1407 10.949 14.6554 12.1155 13.8296L11.5377 13.0134ZM14.2183 13.9334L12.029 12.9643L11.6242 13.8787L13.8135 14.8478L14.2183 13.9334ZM14.2183 13.9334L14.2183 13.9334L13.8135 14.8478C14.6495 15.2179 15.5027 14.3646 15.1327 13.5286L14.2183 13.9334ZM13.2101 11.6557L14.2183 13.9334L15.1327 13.5286L14.1245 11.2509L13.2101 11.6557Z"/>
        </symbol>

        <symbol id="like" viewBox="0 0 16 16" >
          <path d="M13.4131 3.16205C12.7526 2.41268 11.8364 2 10.8333 2C9.42241 2 8.52918 2.84263 8.02831 3.54953C7.89836 3.73296 7.78781 3.91689 7.695 4.08996C7.60219 3.91689 7.49167 3.73296 7.36169 3.54953C6.86082 2.84263 5.96759 2 4.55672 2C3.55357 2 2.63737 2.41271 1.97692 3.16208C1.34696 3.87693 1 4.83431 1 5.85786C1 6.97203 1.43499 8.00832 2.36894 9.11906C3.20365 10.1118 4.40449 11.1351 5.79503 12.32C6.31319 12.7616 6.84902 13.2182 7.41949 13.7173L7.43661 13.7323C7.51057 13.7971 7.60279 13.8294 7.695 13.8294C7.78721 13.8294 7.87943 13.7971 7.95339 13.7323L7.97052 13.7173C8.54098 13.2182 9.07681 12.7616 9.59505 12.32C10.9855 11.1351 12.1864 10.1118 13.0211 9.11906C13.955 8.00829 14.39 6.97203 14.39 5.85786C14.39 4.83431 14.043 3.87693 13.4131 3.16205ZM9.08612 11.7229C8.63944 12.1035 8.17973 12.4952 7.695 12.9166C7.21029 12.4953 6.75056 12.1035 6.3038 11.7228C3.58241 9.40381 1.78457 7.87178 1.78457 5.85786C1.78457 5.02543 2.06192 4.25227 2.56553 3.68081C3.07493 3.10287 3.78206 2.78457 4.55672 2.78457C5.63234 2.78457 6.32765 3.44722 6.72151 4.00311C7.0748 4.50168 7.25915 5.00428 7.32202 5.1972C7.37461 5.35869 7.52517 5.46798 7.695 5.46798C7.86483 5.46798 8.01539 5.35869 8.06798 5.1972C8.13086 5.00428 8.3152 4.50168 8.6685 4.00309C9.06235 3.44722 9.75766 2.78457 10.8333 2.78457C11.6079 2.78457 12.3151 3.10287 12.8244 3.68081C13.3281 4.25227 13.6054 5.02543 13.6054 5.85786C13.6054 7.87178 11.8076 9.40381 9.08612 11.7229Z"/>
        </symbol>

        <symbol id="share" viewBox="0 0 16 16" >
          <path d="M14.8235 2.66663C14.8235 3.86328 13.8535 4.83337 12.6569 4.83337C11.4602 4.83337 10.4902 3.86328 10.4902 2.66663C10.4902 1.47009 11.4602 0.5 12.6569 0.5C13.8535 0.5 14.8235 1.47009 14.8235 2.66663Z"/>
          <path d="M12.6569 5.33337C11.1862 5.33337 9.99023 4.13733 9.99023 2.66663C9.99023 1.19604 11.1862 0 12.6569 0C14.1276 0 15.3235 1.19604 15.3235 2.66663C15.3235 4.13733 14.1276 5.33337 12.6569 5.33337ZM12.6569 1C11.7375 1 10.9902 1.74805 10.9902 2.66663C10.9902 3.58533 11.7375 4.33337 12.6569 4.33337C13.5762 4.33337 14.3235 3.58533 14.3235 2.66663C14.3235 1.74805 13.5762 1 12.6569 1Z"/>
          <path d="M14.8235 13.3334C14.8235 14.5299 13.8535 15.5 12.6569 15.5C11.4602 15.5 10.4902 14.5299 10.4902 13.3334C10.4902 12.1367 11.4602 11.1666 12.6569 11.1666C13.8535 11.1666 14.8235 12.1367 14.8235 13.3334Z"/>
          <path d="M12.6569 16C11.1862 16 9.99023 14.804 9.99023 13.3334C9.99023 11.8627 11.1862 10.6666 12.6569 10.6666C14.1276 10.6666 15.3235 11.8627 15.3235 13.3334C15.3235 14.804 14.1276 16 12.6569 16ZM12.6569 11.6666C11.7375 11.6666 10.9902 12.4147 10.9902 13.3334C10.9902 14.252 11.7375 15 12.6569 15C13.5762 15 14.3235 14.252 14.3235 13.3334C14.3235 12.4147 13.5762 11.6666 12.6569 11.6666Z"/>
          <path d="M5.48962 8C5.48962 9.19666 4.51953 10.1666 3.32288 10.1666C2.12634 10.1666 1.15625 9.19666 1.15625 8C1.15625 6.80334 2.12634 5.83337 3.32288 5.83337C4.51953 5.83337 5.48962 6.80334 5.48962 8Z"/>
          <path id="line" d="M3.32288 10.6666C1.85229 10.6666 0.65625 9.4707 0.65625 8C0.65625 6.5293 1.85229 5.33337 3.32288 5.33337C4.79358 5.33337 5.98962 6.5293 5.98962 8C5.98962 9.4707 4.79358 10.6666 3.32288 10.6666ZM3.32288 6.33337C2.40356 6.33337 1.65625 7.0813 1.65625 8C1.65625 8.9187 2.40356 9.66663 3.32288 9.66663C4.24231 9.66663 4.98962 8.9187 4.98962 8C4.98962 7.0813 4.24231 6.33337 3.32288 6.33337Z"/>
          <path d="M4.89682 7.68005C4.66477 7.68005 4.43943 7.55933 4.31675 7.34338C4.13474 7.02405 4.2468 6.6167 4.56614 6.43396L10.752 2.90735C11.0714 2.724 11.4787 2.83606 11.6615 3.15662C11.8435 3.47595 11.7314 3.8833 11.4121 4.06604L5.22605 7.59265C5.12204 7.65198 5.00876 7.68005 4.89682 7.68005Z"/>
          <path d="M11.0824 13.1801C10.9703 13.1801 10.8571 13.152 10.7531 13.0927L4.56702 9.56604C4.24768 9.38403 4.13575 8.97668 4.31775 8.65662C4.49903 8.33667 4.90699 8.224 5.22705 8.40735L11.4131 11.934C11.7324 12.116 11.8444 12.5233 11.6624 12.8434C11.5391 13.0593 11.3137 13.1801 11.0824 13.1801Z"/>
        </symbol>

        <symbol id="send" viewBox="0 0 16 16" >
          <path d="M15.67 0.330119C15.3931 0.0532747 15.0002 -0.0589128 14.6189 0.0300247C14.6171 0.030431 14.6154 0.0308372 14.6136 0.0312747L2.04866 3.10637C0.842438 3.40156 0 4.47503 0 5.71684V7.37512C0 7.97928 0.478719 8.47374 1.07678 8.49909L5.80312 9.30359C5.903 9.32059 6.00491 9.28812 6.07653 9.21649L11.6464 3.64656C11.8417 3.45131 12.1583 3.45131 12.3536 3.64656C12.5488 3.84184 12.5488 4.1584 12.3536 4.35368L6.78366 9.92362C6.71203 9.99524 6.67956 10.0972 6.69656 10.197L7.50103 14.9234C7.52638 15.5214 8.02084 16.0001 8.625 16.0001H10.2833C11.5251 16.0001 12.5986 15.1577 12.8938 13.9515L15.9688 1.38649C15.9693 1.38474 15.9697 1.38299 15.9701 1.38124C16.0591 0.999931 15.9469 0.606994 15.67 0.330119Z"/>
        </symbol>

        <symbol id="addMedia" viewBox="0 0 16 16" >
          <path d="M12.76 14.5H3.24C2.77852 14.5 2.33595 14.3167 2.00963 13.9904C1.68332 13.6641 1.5 13.2215 1.5 12.76V3.24C1.5 2.77852 1.68332 2.33595 2.00963 2.00963C2.33595 1.68332 2.77852 1.5 3.24 1.5H12.76C13.2215 1.5 13.6641 1.68332 13.9904 2.00963C14.3167 2.33595 14.5 2.77852 14.5 3.24V12.76C14.5 13.2215 14.3167 13.6641 13.9904 13.9904C13.6641 14.3167 13.2215 14.5 12.76 14.5ZM3.24 2.5C3.04374 2.5 2.85552 2.57796 2.71674 2.71674C2.57796 2.85552 2.5 3.04374 2.5 3.24V12.76C2.5 12.9563 2.57796 13.1445 2.71674 13.2833C2.85552 13.422 3.04374 13.5 3.24 13.5H12.76C12.9563 13.5 13.1445 13.422 13.2833 13.2833C13.422 13.1445 13.5 12.9563 13.5 12.76V3.24C13.5 3.04374 13.422 2.85552 13.2833 2.71674C13.1445 2.57796 12.9563 2.5 12.76 2.5H3.24Z"/>
          <path d="M1.99974 12.54C1.92772 12.5398 1.85658 12.5242 1.79105 12.4943C1.72552 12.4644 1.66712 12.4209 1.61974 12.3667C1.5771 12.3164 1.54481 12.2582 1.52473 12.1954C1.50466 12.1326 1.49719 12.0665 1.50277 12.0008C1.50835 11.9352 1.52685 11.8712 1.55722 11.8127C1.58759 11.7542 1.62923 11.7023 1.67974 11.66L5.09307 8.77999C5.34792 8.56489 5.67412 8.45311 6.00733 8.46668C6.34054 8.48026 6.65657 8.61821 6.89307 8.85332L8.51307 10.4733C8.57345 10.525 8.65029 10.5533 8.72974 10.5533C8.80919 10.5533 8.88603 10.525 8.94641 10.4733L10.5197 9.33332C10.7529 9.15384 11.0388 9.05652 11.3331 9.05652C11.6273 9.05652 11.9133 9.15384 12.1464 9.33332L14.3131 11.06C14.3647 11.1011 14.4078 11.1521 14.4397 11.2098C14.4717 11.2676 14.492 11.3311 14.4994 11.3968C14.5069 11.4624 14.5013 11.5288 14.483 11.5923C14.4648 11.6557 14.4342 11.715 14.3931 11.7667C14.3519 11.8183 14.301 11.8613 14.2432 11.8933C14.1854 11.9253 14.1219 11.9456 14.0563 11.953C13.9907 11.9604 13.9242 11.9549 13.8608 11.9366C13.7973 11.9184 13.7381 11.8878 13.6864 11.8467L11.5264 10.1133C11.4681 10.0684 11.3966 10.0441 11.3231 10.0441C11.2495 10.0441 11.178 10.0684 11.1197 10.1133L9.54641 11.3333C9.29031 11.5256 8.97356 11.6193 8.65407 11.5973C8.33457 11.5752 8.03368 11.439 7.80641 11.2133L6.18641 9.55999C6.12516 9.50471 6.04558 9.47411 5.96307 9.47411C5.88057 9.47411 5.80099 9.50471 5.73974 9.55999L2.31974 12.4267C2.23044 12.5021 2.11665 12.5424 1.99974 12.54V12.54Z"/>
          <path d="M9.99935 7.83335C9.63675 7.83335 9.28229 7.72583 8.9808 7.52438C8.67931 7.32293 8.44433 7.03661 8.30557 6.70161C8.16681 6.36661 8.1305 5.99799 8.20124 5.64236C8.27198 5.28672 8.44659 4.96005 8.70299 4.70366C8.95938 4.44726 9.28605 4.27265 9.64168 4.20191C9.99732 4.13118 10.3659 4.16748 10.7009 4.30624C11.0359 4.445 11.3223 4.67999 11.5237 4.98148C11.7252 5.28297 11.8327 5.63742 11.8327 6.00002C11.8327 6.48625 11.6395 6.95257 11.2957 7.29638C10.9519 7.6402 10.4856 7.83335 9.99935 7.83335V7.83335ZM9.99935 5.16669C9.83453 5.16669 9.67342 5.21556 9.53637 5.30713C9.39933 5.3987 9.29252 5.52885 9.22945 5.68112C9.16638 5.83339 9.14987 6.00095 9.18203 6.1626C9.21418 6.32425 9.29355 6.47273 9.41009 6.58928C9.52664 6.70582 9.67512 6.78519 9.83677 6.81734C9.99843 6.8495 10.166 6.83299 10.3183 6.76992C10.4705 6.70685 10.6007 6.60004 10.6922 6.463C10.7838 6.32596 10.8327 6.16484 10.8327 6.00002C10.8327 5.77901 10.7449 5.56705 10.5886 5.41077C10.4323 5.25448 10.2204 5.16669 9.99935 5.16669Z"/>
        </symbol>
    </defs>
</svg>