<svg version="1.1"
    xmlns="http://www.w3.org/2000/svg" 
    xmlnsXlink="http://www.w3.org/1999/xlink"
>
    <defs>
        <symbol viewBox="0 0 16 16" id="comments">
          <path d="M13.6673 11.4533L13.2407 11.1925L13.104 11.416L13.2101 11.6557L13.6673 11.4533ZM11.8266 13.4215L12.029 12.9643L11.7694 12.8494L11.5377 13.0134L11.8266 13.4215ZM14.0159 14.3906L13.8135 14.8478L14.0159 14.3906ZM14.6755 13.731L14.2183 13.9334L14.2183 13.9334L14.6755 13.731ZM14.1404 7.98702C14.1404 9.16232 13.8114 10.2592 13.2407 11.1925L14.0939 11.7142C14.7578 10.6284 15.1404 9.3516 15.1404 7.98702H14.1404ZM7.9867 1.83333C11.3853 1.83333 14.1404 4.58843 14.1404 7.98702H15.1404C15.1404 4.03615 11.9376 0.833333 7.9867 0.833333V1.83333ZM1.83301 7.98702C1.83301 4.58843 4.58811 1.83333 7.9867 1.83333V0.833333C4.03582 0.833333 0.833008 4.03615 0.833008 7.98702H1.83301ZM7.9867 14.1407C4.58811 14.1407 1.83301 11.3856 1.83301 7.98702H0.833008C0.833008 11.9379 4.03582 15.1407 7.9867 15.1407V14.1407ZM11.5377 13.0134C10.5346 13.7235 9.3101 14.1407 7.9867 14.1407V15.1407C9.52376 15.1407 10.949 14.6554 12.1155 13.8296L11.5377 13.0134ZM14.2183 13.9334L12.029 12.9643L11.6242 13.8787L13.8135 14.8478L14.2183 13.9334ZM14.2183 13.9334L14.2183 13.9334L13.8135 14.8478C14.6495 15.2179 15.5027 14.3646 15.1327 13.5286L14.2183 13.9334ZM13.2101 11.6557L14.2183 13.9334L15.1327 13.5286L14.1245 11.2509L13.2101 11.6557Z"/>
        </symbol>

        <symbol id="like" viewBox="0 0 16 16" >
          <path d="M13.4131 3.16205C12.7526 2.41268 11.8364 2 10.8333 2C9.42241 2 8.52918 2.84263 8.02831 3.54953C7.89836 3.73296 7.78781 3.91689 7.695 4.08996C7.60219 3.91689 7.49167 3.73296 7.36169 3.54953C6.86082 2.84263 5.96759 2 4.55672 2C3.55357 2 2.63737 2.41271 1.97692 3.16208C1.34696 3.87693 1 4.83431 1 5.85786C1 6.97203 1.43499 8.00832 2.36894 9.11906C3.20365 10.1118 4.40449 11.1351 5.79503 12.32C6.31319 12.7616 6.84902 13.2182 7.41949 13.7173L7.43661 13.7323C7.51057 13.7971 7.60279 13.8294 7.695 13.8294C7.78721 13.8294 7.87943 13.7971 7.95339 13.7323L7.97052 13.7173C8.54098 13.2182 9.07681 12.7616 9.59505 12.32C10.9855 11.1351 12.1864 10.1118 13.0211 9.11906C13.955 8.00829 14.39 6.97203 14.39 5.85786C14.39 4.83431 14.043 3.87693 13.4131 3.16205ZM9.08612 11.7229C8.63944 12.1035 8.17973 12.4952 7.695 12.9166C7.21029 12.4953 6.75056 12.1035 6.3038 11.7228C3.58241 9.40381 1.78457 7.87178 1.78457 5.85786C1.78457 5.02543 2.06192 4.25227 2.56553 3.68081C3.07493 3.10287 3.78206 2.78457 4.55672 2.78457C5.63234 2.78457 6.32765 3.44722 6.72151 4.00311C7.0748 4.50168 7.25915 5.00428 7.32202 5.1972C7.37461 5.35869 7.52517 5.46798 7.695 5.46798C7.86483 5.46798 8.01539 5.35869 8.06798 5.1972C8.13086 5.00428 8.3152 4.50168 8.6685 4.00309C9.06235 3.44722 9.75766 2.78457 10.8333 2.78457C11.6079 2.78457 12.3151 3.10287 12.8244 3.68081C13.3281 4.25227 13.6054 5.02543 13.6054 5.85786C13.6054 7.87178 11.8076 9.40381 9.08612 11.7229Z"/>
        </symbol>

        <symbol id="share" viewBox="0 0 16 16" >
          <path d="M14.8235 2.66663C14.8235 3.86328 13.8535 4.83337 12.6569 4.83337C11.4602 4.83337 10.4902 3.86328 10.4902 2.66663C10.4902 1.47009 11.4602 0.5 12.6569 0.5C13.8535 0.5 14.8235 1.47009 14.8235 2.66663Z"/>
          <path d="M12.6569 5.33337C11.1862 5.33337 9.99023 4.13733 9.99023 2.66663C9.99023 1.19604 11.1862 0 12.6569 0C14.1276 0 15.3235 1.19604 15.3235 2.66663C15.3235 4.13733 14.1276 5.33337 12.6569 5.33337ZM12.6569 1C11.7375 1 10.9902 1.74805 10.9902 2.66663C10.9902 3.58533 11.7375 4.33337 12.6569 4.33337C13.5762 4.33337 14.3235 3.58533 14.3235 2.66663C14.3235 1.74805 13.5762 1 12.6569 1Z"/>
          <path d="M14.8235 13.3334C14.8235 14.5299 13.8535 15.5 12.6569 15.5C11.4602 15.5 10.4902 14.5299 10.4902 13.3334C10.4902 12.1367 11.4602 11.1666 12.6569 11.1666C13.8535 11.1666 14.8235 12.1367 14.8235 13.3334Z"/>
          <path d="M12.6569 16C11.1862 16 9.99023 14.804 9.99023 13.3334C9.99023 11.8627 11.1862 10.6666 12.6569 10.6666C14.1276 10.6666 15.3235 11.8627 15.3235 13.3334C15.3235 14.804 14.1276 16 12.6569 16ZM12.6569 11.6666C11.7375 11.6666 10.9902 12.4147 10.9902 13.3334C10.9902 14.252 11.7375 15 12.6569 15C13.5762 15 14.3235 14.252 14.3235 13.3334C14.3235 12.4147 13.5762 11.6666 12.6569 11.6666Z"/>
          <path d="M5.48962 8C5.48962 9.19666 4.51953 10.1666 3.32288 10.1666C2.12634 10.1666 1.15625 9.19666 1.15625 8C1.15625 6.80334 2.12634 5.83337 3.32288 5.83337C4.51953 5.83337 5.48962 6.80334 5.48962 8Z"/>
          <path d="M3.32288 10.6666C1.85229 10.6666 0.65625 9.4707 0.65625 8C0.65625 6.5293 1.85229 5.33337 3.32288 5.33337C4.79358 5.33337 5.98962 6.5293 5.98962 8C5.98962 9.4707 4.79358 10.6666 3.32288 10.6666ZM3.32288 6.33337C2.40356 6.33337 1.65625 7.0813 1.65625 8C1.65625 8.9187 2.40356 9.66663 3.32288 9.66663C4.24231 9.66663 4.98962 8.9187 4.98962 8C4.98962 7.0813 4.24231 6.33337 3.32288 6.33337Z"/>
          <path d="M4.89682 7.68005C4.66477 7.68005 4.43943 7.55933 4.31675 7.34338C4.13474 7.02405 4.2468 6.6167 4.56614 6.43396L10.752 2.90735C11.0714 2.724 11.4787 2.83606 11.6615 3.15662C11.8435 3.47595 11.7314 3.8833 11.4121 4.06604L5.22605 7.59265C5.12204 7.65198 5.00876 7.68005 4.89682 7.68005Z"/>
          <path d="M11.0824 13.1801C10.9703 13.1801 10.8571 13.152 10.7531 13.0927L4.56702 9.56604C4.24768 9.38403 4.13575 8.97668 4.31775 8.65662C4.49903 8.33667 4.90699 8.224 5.22705 8.40735L11.4131 11.934C11.7324 12.116 11.8444 12.5233 11.6624 12.8434C11.5391 13.0593 11.3137 13.1801 11.0824 13.1801Z"/>
        </symbol>
    </defs>
</svg>