<svg width="20" height="20" viewBox="0 0 20 20" fill="none" xmlns="http://www.w3.org/2000/svg">
<path d="M1 7.86153L1 4.15384C1 3.60155 1.44772 3.15384 2 3.15384L5.5 3.15384M1 7.86153L1 17.6615C1 18.2138 1.44772 18.6615 2 18.6615L18 18.6615C18.5523 18.6615 19 18.2138 19 17.6615L19 7.86153M1 7.86153L19 7.86153M19 7.86153L19 4.15384C19 3.60155 18.5523 3.15384 18 3.15384L14.5 3.15384M5.5 3.15384L10 3.15384L14.5 3.15384M5.5 3.15384L14.5 3.15384" stroke="#979797" stroke-width="2"/>
<path d="M6.12305 1.07692V5.23077M13.8769 1.07692V5.23077" stroke="#979797" stroke-width="2" stroke-linecap="round"/>
<ellipse cx="6.12276" cy="11.0461" rx="0.830769" ry="0.830769" fill="#979797"/>
<ellipse cx="6.12276" cy="15.3385" rx="0.830769" ry="0.83077" fill="#979797"/>
<circle cx="9.99971" cy="11.0461" r="0.830769" fill="#979797"/>
<ellipse cx="9.99971" cy="15.3385" rx="0.830769" ry="0.83077" fill="#979797"/>
<ellipse cx="13.8767" cy="11.0461" rx="0.83077" ry="0.830769" fill="#979797"/>
<circle cx="13.8767" cy="15.3385" r="0.83077" fill="#979797"/>
</svg>
