<svg width="23" height="20" viewBox="0 0 23 20" fill="none" xmlns="http://www.w3.org/2000/svg">
<path d="M2.80455 9.34545L2.09744 8.63835C2.08838 8.64741 2.07949 8.65664 2.07078 8.66605L2.80455 9.34545ZM19.4955 9.34545L20.2292 8.66605C20.2205 8.65664 20.2116 8.64741 20.2026 8.63835L19.4955 9.34545ZM20.3162 11.7038C20.6915 12.109 21.3242 12.1334 21.7294 11.7581C22.1347 11.3829 22.159 10.7502 21.7838 10.345L20.3162 11.7038ZM0.516239 10.345C0.141013 10.7502 0.165347 11.3829 0.570592 11.7581C0.975837 12.1334 1.60853 12.109 1.98376 11.7038L0.516239 10.345ZM9.06364 8.34545C8.51135 8.34545 8.06364 8.79317 8.06364 9.34545C8.06364 9.89774 8.51135 10.3455 9.06364 10.3455V8.34545ZM13.2364 10.3455C13.7886 10.3455 14.2364 9.89774 14.2364 9.34545C14.2364 8.79317 13.7886 8.34545 13.2364 8.34545V10.3455ZM9.73579 2.41421L9.02868 1.70711L9.73579 2.41421ZM3.80455 17V9.34545H1.80455V17H3.80455ZM3.51165 10.0526L10.4429 3.12132L9.02868 1.70711L2.09744 8.63835L3.51165 10.0526ZM11.8571 3.12132L18.7883 10.0526L20.2026 8.63835L13.2713 1.70711L11.8571 3.12132ZM18.4955 9.34545V17H20.4955V9.34545H18.4955ZM6.97727 18H4.80454V20H6.97727V18ZM7.06364 18H6.97727V20H7.06364V18ZM17.4955 18H15.3227V20H17.4955V18ZM15.3227 18H15.2364V20H15.3227V18ZM14.2364 17V14.4545H12.2364V17H14.2364ZM11.2364 11.4545H11.0636V13.4545H11.2364V11.4545ZM8.06364 14.4545V17H10.0636V14.4545H8.06364ZM18.7617 10.0249L20.3162 11.7038L21.7838 10.345L20.2292 8.66605L18.7617 10.0249ZM2.07078 8.66605L0.516239 10.345L1.98376 11.7038L3.53831 10.0249L2.07078 8.66605ZM9.06364 10.3455H13.2364V8.34545H9.06364V10.3455ZM11.0636 11.4545C9.40678 11.4545 8.06364 12.7977 8.06364 14.4545H10.0636C10.0636 13.9023 10.5114 13.4545 11.0636 13.4545V11.4545ZM14.2364 14.4545C14.2364 12.7977 12.8932 11.4545 11.2364 11.4545V13.4545C11.7886 13.4545 12.2364 13.9023 12.2364 14.4545H14.2364ZM15.2364 18C14.6841 18 14.2364 17.5523 14.2364 17H12.2364C12.2364 18.6569 13.5795 20 15.2364 20V18ZM7.06364 20C8.72049 20 10.0636 18.6569 10.0636 17H8.06364C8.06364 17.5523 7.61592 18 7.06364 18V20ZM18.4955 17C18.4955 17.5523 18.0477 18 17.4955 18V20C19.1523 20 20.4955 18.6569 20.4955 17H18.4955ZM10.4429 3.12132C10.8334 2.7308 11.4666 2.7308 11.8571 3.12132L13.2713 1.70711C12.0997 0.535533 10.2003 0.535536 9.02868 1.70711L10.4429 3.12132ZM1.80455 17C1.80455 18.6569 3.14769 20 4.80454 20V18C4.25226 18 3.80455 17.5523 3.80455 17H1.80455Z" fill="#979797"/>
</svg>
