<svg width="27" height="31" viewBox="0 0 27 31" fill="none" xmlns="http://www.w3.org/2000/svg">
<g filter="url(#filter0_d)">
<circle cx="13.333" cy="7" r="4" stroke="#979797" stroke-width="2"/>
<path d="M6.28054 14.9571L5.64303 18.4634C5.30821 20.3049 6.72293 22 8.59464 22H18.072C19.9437 22 21.3585 20.3049 21.0236 18.4634L20.3861 14.9571C20.1625 13.7273 19.0914 12.8334 17.8415 12.8334C17.6144 12.8334 17.3878 12.8558 17.1652 12.9003L16.2751 13.0783C14.3331 13.4667 12.3335 13.4667 10.3916 13.0783L9.50151 12.9003C9.27882 12.8558 9.05229 12.8334 8.8252 12.8334C7.57524 12.8334 6.50414 13.7273 6.28054 14.9571Z" stroke="#979797" stroke-width="2"/>
</g>
<defs>
<filter id="filter0_d" x="-3" y="0" width="32" height="32" filterUnits="userSpaceOnUse" color-interpolation-filters="sRGB">
<feFlood flood-opacity="0" result="BackgroundImageFix"/>
<feColorMatrix in="SourceAlpha" type="matrix" values="0 0 0 0 0 0 0 0 0 0 0 0 0 0 0 0 0 0 127 0"/>
<feOffset dy="4"/>
<feGaussianBlur stdDeviation="2"/>
<feColorMatrix type="matrix" values="0 0 0 0 0 0 0 0 0 0 0 0 0 0 0 0 0 0 0.25 0"/>
<feBlend mode="normal" in2="BackgroundImageFix" result="effect1_dropShadow"/>
<feBlend mode="normal" in="SourceGraphic" in2="effect1_dropShadow" result="shape"/>
</filter>
</defs>
</svg>
